<svg id="Layer_1" data-name="Layer 1" xmlns="http://www.w3.org/2000/svg" viewBox="0 0 1024 1024"><defs><style>.cls-1{fill:#3268ff;}.cls-2{fill:#0019ff;}</style></defs><path d="M701.4,492.41c0,31.75-25.64,57.55-57.18,57.55s-57-25.8-57-57.55,25.64-57.55,57-57.55A57.32,57.32,0,0,1,701.4,492.41Z"/><path class="cls-1" d="M770.47,246.59l-20.67,0c-.18,0-.33,0-.49,0h-3.63l-1.93,3.06c-.45.61-.87,1.27-1.3,2-2.33,3.74-5.7,9.11-9.73,15.54L731,270h0C707.75,307,665.52,374.23,662.11,379.64a114.27,114.27,0,0,1,92.36,82.85c1.22-1.91,2.5-3.82,3.68-5.74,2.17-3.62,4.61-7.25,6.92-11,9.46-14.67,99.06-156.55,120.76-191.07h0l5.06-8.06Z"/><path class="cls-2" d="M916.74,737.7c-23,27.54-49,47-82,54.79-45.37,10.72-88.45,5.8-127.2-22.32-28.08-20.44-45.22-49.14-57.75-81-.43-1-.87-2-1.3-3.34-.15-.29-.15-.59-.29-.87-3.15-8.5-8.71-23.87-14.15-40.42l-13.49,13.32v0c-36.13,36-74.8,68.88-118.85,94.53-39.47,23-82.25,38-127.63,43.63-54.59,6.81-108.45,4.63-159.16-20.3-65.11-31.89-101.69-84.21-107-157.28-4.19-56.68,10.8-109.31,36.86-158.74C185.45,382.39,243.49,320.92,317.38,275c46.39-28.85,97.24-44.79,151.82-49.43,42.78-3.62,82.68,4.2,118.4,28.41,30.25,20.58,51.14,49,66.55,81.9,4.16,9,7.9,18.17,12.1,28l2.36,5.45-6.49,10.34c.74.11,1.46.23,2.2.36v0a114.93,114.93,0,0,0-20-1.78,113.77,113.77,0,0,0-77.78,30.62c-7.31-26-15.92-51.35-29.61-74.91-9.64-16.67-21.89-31.31-39.31-40.29-22.76-11.74-46.1-9.57-69.29-2.18-32.85,10.58-58.05,32.47-79.94,58-48.4,56.4-84.84,119.89-105.58,191.66-11.24,38.7-15.28,78.42-7.21,118.57,9.22,45.24,40,72.34,83,72.2a116.8,116.8,0,0,0,43.94-8.41C399.34,709,430,685.08,458.84,658.25c33.88-31.5,62.63-67,89.26-104.38a114.13,114.13,0,0,0,181.32,14.58c7.52,19,15.32,48.14,22.69,70.81v.14c2,6.38,4,12.18,6,17.11,8.36,20.87,17.15,41.47,33.86,57l3.45,3c21.74,18.12,47.82,22.91,75.06,23.78C885.2,741,899.88,739,916.74,737.7Z"/></svg>