<svg width="800" height="800" viewBox="0 0 800 800" fill="none" xmlns="http://www.w3.org/2000/svg">
<path d="M783 350L737.5 216L431 42.4999C421.512 37.2468 410.845 34.491 400 34.491C389.155 34.491 378.488 37.2468 369 42.4999L62.5 216L17 350C12.1329 363.908 12.3784 379.095 17.6926 392.839C23.0068 406.582 33.0422 417.984 46 425L62.5 434V550C63.2187 560.286 66.4711 570.234 71.9672 578.958C77.4634 587.682 85.0325 594.911 94 600L369 755.5C378.488 760.753 389.155 763.509 400 763.509C410.845 763.509 421.512 760.753 431 755.5L706 600C714.967 594.911 722.537 587.682 728.033 578.958C733.529 570.234 736.781 560.286 737.5 550V434L754 425C766.958 417.984 776.993 406.582 782.307 392.839C787.622 379.095 787.867 363.908 783 350ZM500 493.5L476 429.5L700 306.5L722 370.5L500 493.5ZM400 96.9999L673 250L400 400L127 250L400 96.9999ZM76 370.5L100 306.5L324 429.5L300 493.5L76 370.5ZM126 468L338.5 584L369.5 492V685.5L125 550L126 468ZM675 550L431 685.5V492L462.5 584L675 468V550Z" fill="url(#paint0_linear_4_36)"/>
<defs>
<linearGradient id="paint0_linear_4_36" x1="400" y1="34.491" x2="400" y2="763.509" gradientUnits="userSpaceOnUse">
<stop stop-color="#FF9900"/>
<stop offset="1" stop-color="#FF6600"/>
</linearGradient>
</defs>
</svg>
