<svg width="800" height="800" viewBox="0 0 800 800" fill="none" xmlns="http://www.w3.org/2000/svg">
<g clip-path="url(#clip0_4_31)">
<path d="M507.356 272.806C487.695 269.537 442.441 269.178 404.338 277.481C401.897 275.869 399.45 274.201 397.038 272.719C389.672 268.208 382.448 264.394 375.273 261.519C368.317 258.751 361.381 256.845 354.125 256.462V256.431C343.256 255.548 332.705 255.156 323.003 255.156C308.233 255.178 295.633 255.995 286.295 257.553H286.333C285.042 257.75 283.627 257.87 282.089 257.87C274.02 257.967 262.852 254.133 252.719 248.597C245.888 244.936 237.422 246.875 232.867 253.152L121.656 406.517C117.869 411.736 117.733 418.808 121.302 424.191C124.123 428.419 126.483 432.808 128.041 437.2C130.28 443.4 133.522 449.033 137.264 454.514C141.011 459.972 145.289 465.267 149.755 470.323L151.505 472C151.505 472 159.513 478.603 172.272 489.106C168.942 493.88 167.113 499.545 167.047 505.516C166.966 513.383 169.945 520.836 175.459 526.469C181.059 532.189 188.545 535.337 196.548 535.337C202.155 535.337 207.514 533.725 212.183 530.772C209.063 535.478 207.33 540.959 207.264 546.723C207.177 554.591 210.167 562.033 215.675 567.655C221.264 573.386 228.756 576.534 236.764 576.534C243.055 576.534 249.009 574.486 254.033 570.825C244.892 582.287 245.388 599.011 255.895 609.766C261.486 615.475 268.97 618.623 276.967 618.623H276.973C284.731 618.623 292.064 615.628 297.642 610.169L303.095 604.753C300.813 608.937 299.45 613.578 299.395 618.472C299.314 626.348 302.294 633.791 307.806 639.423C313.402 645.133 320.892 648.281 328.895 648.281C336.647 648.281 343.973 645.297 349.602 639.805L352.92 636.437C354.581 637.745 356.097 638.922 357.333 639.881C358.345 640.644 359.208 641.298 359.997 641.866L361.169 642.694L362.83 643.719C369.067 647.139 375.033 648.622 379.777 649.667C382.141 650.158 384.167 650.495 385.67 650.702L387.502 650.942L388.073 650.997L388.291 651.019L388.427 651.041L388.573 651.052L388.77 651.062C388.95 651.062 388.863 651.084 389.809 651.106L390.927 651.062C401.317 650.3 411.155 646.725 419.23 640.559C422.442 638.097 425.255 635.122 427.772 631.866C432.745 633.478 438.013 634.436 443.494 634.436C465.725 634.427 484.434 620.25 491.68 600.53C492.486 600.475 493.288 600.442 494.081 600.236C496.903 600.748 499.764 601.119 502.727 601.119C524.786 601.097 543.455 587.195 550.82 567.734C550.87 567.691 550.919 567.67 550.967 567.636L552.698 567.8C581.195 567.8 604.263 544.711 604.273 516.231C604.291 508.32 603.195 499.572 600.183 490.473C619.741 473.194 648.402 446.498 653.583 432.008C656.078 425.034 670.106 408.311 674.181 402.611L563.836 250.433C549.763 258.401 522.452 275.334 507.356 272.806ZM573.317 516.225C573.302 527.611 564.089 536.828 552.702 536.85C549.88 536.85 547.244 536.284 544.788 535.259C544.542 535.15 544.286 535.128 544.041 535.052L524.919 511.789C520.081 506.189 511.609 505.558 506.003 510.394C500.392 515.231 499.772 523.709 504.614 529.32L523.109 551.862C521.927 562.116 513.309 570.145 502.728 570.156C497.705 570.145 493.25 568.359 489.605 565.362L471.252 542.981C466.408 537.381 457.936 536.761 452.331 541.598C446.719 546.436 446.103 554.914 450.941 560.512L463.727 576.444C463.705 577.434 463.608 578.427 463.781 579.419C464.005 580.672 464.108 581.803 464.108 582.85C464.092 594.247 454.875 603.453 443.494 603.475C440.519 603.475 437.78 602.789 435.252 601.678L412.883 578.166C407.484 573.087 398.997 573.35 393.919 578.753C388.836 584.147 389.098 592.645 394.491 597.711L404.988 610.023C403.936 612.28 402.536 614.317 400.406 615.972C397.677 618.064 393.923 619.502 389.653 619.981C388.406 619.797 386.711 619.512 384.695 619.034C382.195 618.469 379.558 617.542 378.191 616.822C377.717 616.475 376.508 615.581 374.759 614.206C373.767 613.444 372.641 612.573 371.388 611.57C373.653 602.048 371.213 591.609 363.864 584.092C358.269 578.372 350.778 575.223 342.775 575.223C338.275 575.223 333.961 576.334 329.994 578.264L329.875 578.166L330.011 578.012C335.639 572.5 338.788 565.134 338.873 557.247C338.955 549.369 335.964 541.926 330.452 536.305C324.861 530.595 317.367 527.436 309.369 527.436C303.114 527.436 297.188 529.461 292.186 533.08C296.233 527.98 298.583 521.791 298.653 515.178C298.741 507.3 295.75 499.858 290.241 494.236C284.647 488.505 277.156 485.356 269.153 485.356C261.402 485.356 254.073 488.342 248.495 493.811L243.522 498.758C249.656 487.644 248.241 473.414 238.923 463.892C233.323 458.172 225.833 455.023 217.83 455.023C210.078 455.023 202.75 458.008 197.161 463.478L193.87 466.78C191.533 464.85 189.239 462.966 187.213 461.298C179.597 455.044 174.35 450.708 172.242 448.964C168.68 444.9 165.383 440.814 162.806 437.023C160.039 433.014 158.078 429.298 157.195 426.781C155.898 423.142 154.352 419.722 152.669 416.475L250.434 281.664C260.1 285.706 270.673 288.745 282.088 288.823C285.127 288.823 288.238 288.605 291.391 288.083H291.43C297.939 286.972 309.542 286.098 323 286.122C331.875 286.1 341.638 286.47 351.617 287.276L352.298 287.32C354.75 287.386 358.831 288.258 363.788 290.262L364.909 290.775C323.147 309.634 263.963 345.919 244.513 352.411C222.302 359.809 220.444 389.434 270.417 394.98C320.4 400.547 364.822 369.059 375.925 363.525C383.895 359.537 434.531 364.408 462.578 367.48C474.945 379.694 485.786 391.025 493.691 399.589L555.289 474.898L555.561 475.205C563.455 484.345 567.738 491.764 570.167 498.128C572.572 504.491 573.302 509.981 573.317 516.225Z" fill="url(#paint0_linear_4_31)"/>
<path d="M797.877 358.784L649.022 153.489C645.42 148.509 638.48 147.42 633.511 151.016L567.577 198.827C562.608 202.422 561.502 209.373 565.108 214.342L713.964 419.637C717.564 424.606 724.505 425.717 729.473 422.122L795.419 374.302C800.378 370.692 801.489 363.752 797.877 358.784ZM747.228 377.23C738.958 383.222 727.377 381.37 721.372 373.1C715.373 364.831 717.222 353.259 725.502 347.256C733.777 341.253 745.348 343.105 751.352 351.362C757.35 359.644 755.503 371.227 747.228 377.23Z" fill="url(#paint1_linear_4_31)"/>
<path d="M232.433 198.825L166.486 151.014C161.528 147.419 154.583 148.508 150.977 153.487L2.11566 358.784C-1.49059 363.753 -0.368716 370.694 4.5891 374.3L70.5235 422.12C75.4922 425.716 82.4313 424.605 86.0266 419.636L234.889 214.341C238.495 209.372 237.389 202.42 232.433 198.825ZM188.366 221.75C182.367 230.02 170.791 231.872 162.516 225.869C154.234 219.877 152.389 208.283 158.391 200.025C164.388 191.744 175.966 189.892 184.241 195.897C192.527 201.898 194.358 213.469 188.366 221.75Z" fill="url(#paint2_linear_4_31)"/>
</g>
<defs>
<linearGradient id="paint0_linear_4_31" x1="396.449" y1="246.755" x2="396.449" y2="651.106" gradientUnits="userSpaceOnUse">
<stop stop-color="#FF9900"/>
<stop offset="1" stop-color="#FF6600"/>
</linearGradient>
<linearGradient id="paint1_linear_4_31" x1="681.494" y1="148.899" x2="681.494" y2="424.232" gradientUnits="userSpaceOnUse">
<stop stop-color="#FF9900"/>
<stop offset="1" stop-color="#FF6600"/>
</linearGradient>
<linearGradient id="paint2_linear_4_31" x1="118.505" y1="148.897" x2="118.505" y2="424.23" gradientUnits="userSpaceOnUse">
<stop stop-color="#FF9900"/>
<stop offset="1" stop-color="#FF6600"/>
</linearGradient>
<clipPath id="clip0_4_31">
<rect width="800" height="800" fill="white"/>
</clipPath>
</defs>
</svg>
