<svg width="36" height="48" viewBox="0 0 36 48" fill="none" xmlns="http://www.w3.org/2000/svg">
<path d="M30.832 47.896C29.8933 47.896 29.04 47.7467 28.272 47.448C27.5467 47.192 26.7573 46.7013 25.904 45.976C24.9653 45.592 24.1547 45.0373 23.472 44.312C22.832 43.544 22.256 42.6907 21.744 41.752L10.608 22.104H10.48C10.096 24.4507 9.75467 27.0747 9.456 29.976C9.2 32.8773 8.96533 35.7573 8.752 38.616C8.58133 41.432 8.45333 43.9067 8.368 46.04C8.368 46.68 7.96267 47 7.152 47C5.31733 47 3.84533 46.232 2.736 44.696C1.66933 43.1173 1.136 40.984 1.136 38.296C1.136 36.7173 1.24267 34.072 1.456 30.36C1.66933 26.648 2.032 22.0187 2.544 16.472C2.75733 13.8267 3.03467 11.9493 3.376 10.84C3.71733 9.73067 4.29333 9.176 5.104 9.176L1.136 2.52C0.965333 2.22133 0.88 1.90133 0.88 1.56C0.88 0.749331 1.392 0.343998 2.416 0.343998C3.824 0.343998 5.44533 0.834665 7.28 1.816C9.15733 2.79733 10.6933 4.376 11.888 6.552L24.88 30.808H25.008C25.2213 28.12 25.4347 25.3467 25.648 22.488C25.8613 19.6293 26.0747 16.856 26.288 14.168C26.5013 11.4373 26.6933 8.96267 26.864 6.744C27.0347 4.52533 27.184 2.73333 27.312 1.368C27.3973 1.02666 27.6533 0.791999 28.08 0.663998C28.5067 0.493331 28.9973 0.407997 29.552 0.407997C30.5333 0.407997 31.4507 0.663998 32.304 1.176C33.1573 1.688 33.8613 2.56266 34.416 3.8C34.9707 4.99467 35.248 6.65867 35.248 8.792C35.248 10.2853 35.12 12.376 34.864 15.064C34.6507 17.7093 34.3733 20.7387 34.032 24.152C33.7333 27.5227 33.456 31.1067 33.2 34.904C32.9867 38.6587 32.88 42.4133 32.88 46.168C32.88 46.7227 32.688 47.1493 32.304 47.448C31.92 47.7467 31.4293 47.896 30.832 47.896Z" fill="#FF6200"/>
</svg>
